<?xml version="1.0" encoding="UTF-8"?>
<svg width="752pt" height="752pt" version="1.1" viewBox="0 0 752 752" xmlns="http://www.w3.org/2000/svg">
 <g>
  <path d="m504.19 492.64c0-0.125 0.015625-0.24609 0.015625-0.37109 0-0.0625-0.015625-0.10938-0.019531-0.17188l-0.28906-87.535c0-18.449-14.078-33.457-31.379-33.457-6.6523 0-12.695 1.9102-17.66 5.2344-2.5156-15.48-14.988-26.922-30.484-26.922-6.8203 0-13.043 2.2383-18.105 6.0352-3.8164-13.484-15.484-23.055-29.668-23.055-6.2617 0-12.016 1.8789-16.84 5.1094v-37.293c20.469-10.891 33.137-32.328 33.137-56.355 0-35.441-28.855-64.277-64.32-64.277-35.453 0-64.297 28.836-64.297 64.277 0 23.734 12.781 45.117 33.477 56.418v91.395c-7.8672-12.484-15.473-21.367-15.969-21.941-11.91-13.961-26.719-17.008-41.727-8.5859-15.137 8.5352-19.961 27.723-10.98 43.691l0.64844 1.1523 1.0195 0.84375c0.26562 0.21875 26.465 22.301 32.406 63.758 3.6133 24.844 7.1445 46.625 13.832 61.543 0.44922 1.0078 1.1523 1.8008 1.9414 2.4688 9.6719 22.336 35.598 53.871 104.96 53.871h16.605c62.434 0 100.57-33.301 103.44-89.387 0.16016-0.60547 0.28516-1.2305 0.28125-1.8867zm-225.71-248.79c0-27.609 22.473-50.07 50.09-50.07 27.629 0 50.113 22.461 50.113 50.07 0 16.191-6.9844 30.332-18.93 39.457v-37.535c0-18.324-13.629-32.672-31.027-32.672-17.367 0-30.977 14.348-30.977 32.672v37.465c-12.023-9.375-19.27-23.688-19.27-39.387zm122.01 330.4h-16.605c-49.328 0-82.605-17.711-93.711-49.867-0.45312-1.3125-1.2656-2.3945-2.2734-3.207-4.7031-13.184-7.6562-31.738-10.695-52.625-6.0508-42.23-30.609-66.566-36.281-71.691-4.4453-8.9258-1.9258-18.816 6.1016-23.34 5.6055-3.1484 14.199-6.0078 23.977 5.4609 0.1875 0.21875 18.68 21.816 26.746 44.012v15.164c0 3.9219 3.1758 7.1055 7.1055 7.1055 3.9258 0 7.1055-3.1836 7.1055-7.1055v-192.38c0-10.527 7.207-18.465 16.77-18.465 9.5898 0 16.82 7.9375 16.82 18.465v176.41c0 3.9219 3.1758 7.1055 7.1055 7.1055 3.9258 0 7.1055-3.1836 7.1055-7.1055v-57.09c0-10.547 7.2422-18.492 16.84-18.492 9.5703 0 16.789 7.9531 16.789 18.492v57.086c0 3.9219 3.1836 7.1055 7.1055 7.1055s7.1055-3.1836 7.1055-7.1055v-40.07c0-10.547 7.2109-18.492 16.777-18.492 9.5625 0 16.77 7.9531 16.77 18.492v43.895c0 3.9219 3.1836 7.1055 7.1055 7.1055s7.1055-3.1836 7.1055-7.1055v-22.914c0-10.305 7.2188-17.781 17.168-17.781 9.4688 0 17.172 8.6328 17.172 19.27l0.29297 88.234c-0.32813 73.477-62.66 81.43-89.5 81.43z"/>
  <path d="m398.79 277.4c-2.1602 3.2734-1.2578 7.6797 2.0156 9.8398l20.176 13.305c0.089844 0.058594 0.18359 0.074219 0.27344 0.12891 0.38672 0.23047 0.78906 0.40625 1.207 0.55859 0.19531 0.070313 0.37891 0.16406 0.57422 0.21875 0.58594 0.16016 1.1953 0.25391 1.8047 0.26172 0.019531 0 0.03125 0.003906 0.050781 0.003906h0.007813c0.019531 0 0.03125-0.003906 0.050781-0.003906 0.60938-0.003906 1.2188-0.097656 1.8086-0.26172 0.1875-0.050781 0.37109-0.14062 0.55859-0.21484 0.42578-0.15625 0.83203-0.33594 1.2266-0.57422 0.085937-0.050781 0.17969-0.066406 0.26562-0.125l20.16-13.305c3.2734-2.1602 4.1758-6.5703 2.0156-9.8398-2.1641-3.2812-6.582-4.1758-9.8398-2.0156l-9.1562 6.0391c0-0.03125 0.007812-0.0625 0.007812-0.09375l0.011719-97.465 9.1484 6.0273c1.2031 0.78906 2.5586 1.1758 3.9023 1.1758 2.3047 0 4.5703-1.1211 5.9336-3.1914 2.1602-3.2734 1.2578-7.6797-2.0234-9.8398l-20.098-13.246c-0.003906 0-0.007812-0.003906-0.019531-0.007812l-0.015625-0.007813h-0.003906l-0.03125-0.03125c-0.10547-0.070312-0.21875-0.10938-0.32031-0.17188-0.29297-0.17188-0.57812-0.33594-0.89062-0.46484-0.19922-0.085937-0.40234-0.12891-0.60547-0.1875-0.24219-0.074218-0.47656-0.16016-0.72266-0.20703-0.25391-0.046875-0.50781-0.058593-0.76172-0.074219-0.17969-0.015624-0.35938-0.050781-0.54297-0.058593-0.019532 0-0.03125-0.003907-0.050782-0.003907-0.015625 0-0.027344 0.003907-0.042968 0.003907-0.21875 0-0.42578 0.042969-0.64063 0.0625-0.22266 0.019531-0.44922 0.023437-0.67187 0.070312-0.27344 0.050781-0.53125 0.14844-0.79688 0.22656-0.17969 0.058594-0.35937 0.09375-0.53516 0.16406-0.015625 0.003906-0.03125 0.007813-0.046875 0.015625-0.29297 0.11719-0.55078 0.28125-0.82031 0.4375-0.03125 0.019531-0.070313 0.03125-0.097657 0.050781-0.089843 0.050782-0.17969 0.078126-0.26562 0.13672l-0.023438 0.015625c-0.003906 0.003906-0.007812 0.003906-0.015625 0.007813l-0.019531 0.007812c-0.003906 0.003907-0.007813 0.003907-0.015625 0.007813l-20.102 13.254c-3.2734 2.1602-4.1836 6.5625-2.0273 9.8398 1.3672 2.0742 3.6328 3.1953 5.9375 3.1953 1.3398 0 2.6992-0.37891 3.9023-1.1758l9.1641-6.0391v97.477c0 0.03125 0.007812 0.0625 0.007812 0.09375l-9.168-6.043c-3.2695-2.1523-7.6719-1.2578-9.8398 2.0234z"/>
 </g>
</svg>
